# xmcd
#
# Track frame offsets: 
#        182
#        647
#        3955
#        4722
#        7620
#        7775
#        10815
#        29952
#        31285
#        33115
#        33907
#        41745
#        42575
#        48402
#        70567
#        70695
#        81162
#        97902
#        98415
#        102642
#        124337
#        127602
#        132670
#        154600
#        154977
#        159087
#        178407
#        178877
#        187602
#        210565
#
# Disc length: 2947 seconds
#
# Revision: 0
# Processed by: cddbd v1.5PL3 Copyright (c) Steve Scherf et al.
# Submitted via: ExactAudioCopy v0.90b4
#
DISCID=660b811e
DTITLE=Emmylou Harris - Building The Wrecking Ball (Interview and Music)
DYEAR=1900
DGENRE=Country
TTITLE0=Question - Anthony (The Genesis Of The Project)
TTITLE1=Answer - Emmylou And Daniel
TTITLE2=Question - Anthony (Album Direction)
TTITLE3=Answer - Emmylou
TTITLE4=Question - Anthony (Where Will I Be)
TTITLE5=Answer - Daniel (Where Will I Be)
TTITLE6=Where Will I Be
TTITLE7=Question - Anthony (There Is A Sense Of...)
TTITLE8=Answer - Daniel (Goodbye)
TTITLE9=Question - Goodbye
TTITLE10=Answer - Emmylou (Goodbye)
TTITLE11=Question - Anthony (Songwriters In The Studio...)
TTITLE12=Answer - Emmylou And Daniel (Goodbye)
TTITLE13=Goodbye
TTITLE14=Question - Anthony (All My Tears)
TTITLE15=Answer - Emmylou (All My Tears)
TTITLE16=All My Tears
TTITLE17=Question - Anthony (Wrecking Ball)
TTITLE18=Answer - Anthony (Wrecking Ball)
TTITLE19=Wrecking Ball
TTITLE20=Question - Anthony (Goin' Back To Harlan)
TTITLE21=Answer - Daniel And Emmylou (Goin' Back To Harlan)
TTITLE22=Goin' Back To Harlan
TTITLE23=Question - Anthony (Deeper Well)
TTITLE24=Answer - Daniel And Emmylou (Deeper Well)
TTITLE25=Deeper Well
TTITLE26=Question - Anthony (Sweet Old World)
TTITLE27=Answer - Emmylou And Daniel (Sweet Old World)
TTITLE28=Sweet Old World
TTITLE29=Closing - Emmylou And Daniel
EXTD=
EXTT0=
EXTT1=
EXTT2=
EXTT3=
EXTT4=
EXTT5=
EXTT6=
EXTT7=
EXTT8=
EXTT9=
EXTT10=
EXTT11=
EXTT12=
EXTT13=
EXTT14=
EXTT15=
EXTT16=
EXTT17=
EXTT18=
EXTT19=
EXTT20=
EXTT21=
EXTT22=
EXTT23=
EXTT24=
EXTT25=
EXTT26=
EXTT27=
EXTT28=
EXTT29=
PLAYORDER=
